<svg width="34" height="46" viewBox="0 0 34 46" fill="none" xmlns="http://www.w3.org/2000/svg">
<path d="M20.976 24.748H6.992L4.416 31.878H0L11.592 0H16.422L27.968 31.878H23.552L20.976 24.748ZM19.78 21.344L13.984 5.152L8.188 21.344H19.78Z" fill="black"/>
<path d="M28.482 12.8781H33.482V45.8781H28.482V12.8781Z" fill="#30B3CF"/>
<path d="M33.482 8.37805C33.482 9.75876 32.3627 10.8781 30.982 10.8781C29.6013 10.8781 28.482 9.75876 28.482 8.37805C28.482 6.99734 29.6013 5.87805 30.982 5.87805C32.3627 5.87805 33.482 6.99734 33.482 8.37805Z" fill="#30B3CF"/>
<path d="M3.50699 41.403C3.41032 41.1997 3.27032 41.043 3.08699 40.933C2.90366 40.8197 2.69032 40.763 2.44699 40.763C2.20366 40.763 1.98366 40.8197 1.78699 40.933C1.59366 41.043 1.44032 41.203 1.32699 41.413C1.21699 41.6197 1.16199 41.8597 1.16199 42.133C1.16199 42.4064 1.21699 42.6464 1.32699 42.853C1.44032 43.0597 1.59366 43.2197 1.78699 43.333C1.98366 43.443 2.20366 43.498 2.44699 43.498C2.78699 43.498 3.06699 43.3964 3.28699 43.193C3.50699 42.9897 3.63532 42.7147 3.67199 42.368H2.28199V41.998H4.15699V42.348C4.13032 42.6347 4.04032 42.898 3.88699 43.138C3.73366 43.3747 3.53199 43.563 3.28199 43.703C3.03199 43.8397 2.75366 43.908 2.44699 43.908C2.12366 43.908 1.82866 43.833 1.56199 43.683C1.29532 43.5297 1.08366 43.318 0.926991 43.048C0.773658 42.778 0.696991 42.473 0.696991 42.133C0.696991 41.793 0.773658 41.488 0.926991 41.218C1.08366 40.9447 1.29532 40.733 1.56199 40.583C1.82866 40.4297 2.12366 40.353 2.44699 40.353C2.81699 40.353 3.14366 40.4447 3.42699 40.628C3.71366 40.8114 3.92199 41.0697 4.05199 41.403H3.50699Z" fill="black"/>
<path d="M7.25859 42.403C7.25859 42.4897 7.25359 42.5814 7.24359 42.678H5.05359C5.07026 42.948 5.16193 43.1597 5.32859 43.313C5.49859 43.463 5.70359 43.538 5.94359 43.538C6.14026 43.538 6.30359 43.493 6.43359 43.403C6.56693 43.3097 6.66026 43.1864 6.71359 43.033H7.20359C7.13026 43.2964 6.98359 43.5114 6.76359 43.678C6.54359 43.8414 6.27026 43.923 5.94359 43.923C5.68359 43.923 5.45026 43.8647 5.24359 43.748C5.04026 43.6314 4.88026 43.4664 4.76359 43.253C4.64693 43.0364 4.58859 42.7864 4.58859 42.503C4.58859 42.2197 4.64526 41.9714 4.75859 41.758C4.87193 41.5447 5.03026 41.3814 5.23359 41.268C5.44026 41.1514 5.67693 41.093 5.94359 41.093C6.20359 41.093 6.43359 41.1497 6.63359 41.263C6.83359 41.3764 6.98693 41.533 7.09359 41.733C7.20359 41.9297 7.25859 42.153 7.25859 42.403ZM6.78859 42.308C6.78859 42.1347 6.75026 41.9864 6.67359 41.863C6.59693 41.7364 6.49193 41.6414 6.35859 41.578C6.22859 41.5114 6.08359 41.478 5.92359 41.478C5.69359 41.478 5.49693 41.5514 5.33359 41.698C5.17359 41.8447 5.08193 42.048 5.05859 42.308H6.78859Z" fill="black"/>
<path d="M9.19418 41.088C9.52751 41.088 9.79751 41.1897 10.0042 41.393C10.2108 41.593 10.3142 41.883 10.3142 42.263V43.878H9.86418V42.328C9.86418 42.0547 9.79585 41.8464 9.65918 41.703C9.52251 41.5564 9.33584 41.483 9.09918 41.483C8.85918 41.483 8.66751 41.558 8.52418 41.708C8.38418 41.858 8.31418 42.0764 8.31418 42.363V43.878H7.85918V41.138H8.31418V41.528C8.40418 41.388 8.52585 41.2797 8.67918 41.203C8.83584 41.1264 9.00751 41.088 9.19418 41.088Z" fill="black"/>
<path d="M13.5574 42.403C13.5574 42.4897 13.5524 42.5814 13.5424 42.678H11.3524C11.3691 42.948 11.4608 43.1597 11.6274 43.313C11.7974 43.463 12.0024 43.538 12.2424 43.538C12.4391 43.538 12.6024 43.493 12.7324 43.403C12.8658 43.3097 12.9591 43.1864 13.0124 43.033H13.5024C13.4291 43.2964 13.2824 43.5114 13.0624 43.678C12.8424 43.8414 12.5691 43.923 12.2424 43.923C11.9824 43.923 11.7491 43.8647 11.5424 43.748C11.3391 43.6314 11.1791 43.4664 11.0624 43.253C10.9458 43.0364 10.8874 42.7864 10.8874 42.503C10.8874 42.2197 10.9441 41.9714 11.0574 41.758C11.1708 41.5447 11.3291 41.3814 11.5324 41.268C11.7391 41.1514 11.9758 41.093 12.2424 41.093C12.5024 41.093 12.7324 41.1497 12.9324 41.263C13.1324 41.3764 13.2858 41.533 13.3924 41.733C13.5024 41.9297 13.5574 42.153 13.5574 42.403ZM13.0874 42.308C13.0874 42.1347 13.0491 41.9864 12.9724 41.863C12.8958 41.7364 12.7908 41.6414 12.6574 41.578C12.5274 41.5114 12.3824 41.478 12.2224 41.478C11.9924 41.478 11.7958 41.5514 11.6324 41.698C11.4724 41.8447 11.3808 42.048 11.3574 42.308H13.0874Z" fill="black"/>
<path d="M14.613 41.583C14.693 41.4264 14.8063 41.3047 14.953 41.218C15.103 41.1314 15.2847 41.088 15.498 41.088V41.558H15.378C14.868 41.558 14.613 41.8347 14.613 42.388V43.878H14.158V41.138H14.613V41.583Z" fill="black"/>
<path d="M15.8532 42.498C15.8532 42.218 15.9099 41.973 16.0232 41.763C16.1366 41.5497 16.2916 41.3847 16.4882 41.268C16.6882 41.1514 16.9099 41.093 17.1532 41.093C17.3932 41.093 17.6016 41.1447 17.7782 41.248C17.9549 41.3514 18.0866 41.4814 18.1732 41.638V41.138H18.6332V43.878H18.1732V43.368C18.0832 43.528 17.9482 43.6614 17.7682 43.768C17.5916 43.8714 17.3849 43.923 17.1482 43.923C16.9049 43.923 16.6849 43.863 16.4882 43.743C16.2916 43.623 16.1366 43.4547 16.0232 43.238C15.9099 43.0214 15.8532 42.7747 15.8532 42.498ZM18.1732 42.503C18.1732 42.2964 18.1316 42.1164 18.0482 41.963C17.9649 41.8097 17.8516 41.693 17.7082 41.613C17.5682 41.5297 17.4132 41.488 17.2432 41.488C17.0732 41.488 16.9182 41.528 16.7782 41.608C16.6382 41.688 16.5266 41.8047 16.4432 41.958C16.3599 42.1114 16.3182 42.2914 16.3182 42.498C16.3182 42.708 16.3599 42.8914 16.4432 43.048C16.5266 43.2014 16.6382 43.3197 16.7782 43.403C16.9182 43.483 17.0732 43.523 17.2432 43.523C17.4132 43.523 17.5682 43.483 17.7082 43.403C17.8516 43.3197 17.9649 43.2014 18.0482 43.048C18.1316 42.8914 18.1732 42.7097 18.1732 42.503Z" fill="black"/>
<path d="M19.9571 41.513V43.128C19.9571 43.2614 19.9855 43.3564 20.0421 43.413C20.0988 43.4664 20.1971 43.493 20.3371 43.493H20.6721V43.878H20.2621C20.0088 43.878 19.8188 43.8197 19.6921 43.703C19.5655 43.5864 19.5021 43.3947 19.5021 43.128V41.513H19.1471V41.138H19.5021V40.448H19.9571V41.138H20.6721V41.513H19.9571Z" fill="black"/>
<path d="M22.4184 43.923C22.1618 43.923 21.9284 43.8647 21.7184 43.748C21.5118 43.6314 21.3484 43.4664 21.2284 43.253C21.1118 43.0364 21.0534 42.7864 21.0534 42.503C21.0534 42.223 21.1134 41.9764 21.2334 41.763C21.3568 41.5464 21.5234 41.3814 21.7334 41.268C21.9434 41.1514 22.1784 41.093 22.4384 41.093C22.6984 41.093 22.9334 41.1514 23.1434 41.268C23.3534 41.3814 23.5184 41.5447 23.6384 41.758C23.7618 41.9714 23.8234 42.2197 23.8234 42.503C23.8234 42.7864 23.7601 43.0364 23.6334 43.253C23.5101 43.4664 23.3418 43.6314 23.1284 43.748C22.9151 43.8647 22.6784 43.923 22.4184 43.923ZM22.4184 43.523C22.5818 43.523 22.7351 43.4847 22.8784 43.408C23.0218 43.3314 23.1368 43.2164 23.2234 43.063C23.3134 42.9097 23.3584 42.723 23.3584 42.503C23.3584 42.283 23.3151 42.0964 23.2284 41.943C23.1418 41.7897 23.0284 41.6764 22.8884 41.603C22.7484 41.5264 22.5968 41.488 22.4334 41.488C22.2668 41.488 22.1134 41.5264 21.9734 41.603C21.8368 41.6764 21.7268 41.7897 21.6434 41.943C21.5601 42.0964 21.5184 42.283 21.5184 42.503C21.5184 42.7264 21.5584 42.9147 21.6384 43.068C21.7218 43.2214 21.8318 43.3364 21.9684 43.413C22.1051 43.4864 22.2551 43.523 22.4184 43.523Z" fill="black"/>
<path d="M24.8767 41.583C24.9567 41.4264 25.07 41.3047 25.2167 41.218C25.3667 41.1314 25.5483 41.088 25.7617 41.088V41.558H25.6417C25.1317 41.558 24.8767 41.8347 24.8767 42.388V43.878H24.4217V41.138H24.8767V41.583Z" fill="black"/>
<path d="M6.322 34.3929V37.8779H5.867V34.3929H6.322Z" fill="black"/>
<path d="M10.3925 35.0879C10.6058 35.0879 10.7958 35.1329 10.9625 35.2229C11.1291 35.3096 11.2608 35.4413 11.3575 35.6179C11.4541 35.7946 11.5025 36.0096 11.5025 36.2629V37.8779H11.0525V36.3279C11.0525 36.0546 10.9841 35.8463 10.8475 35.7029C10.7141 35.5563 10.5325 35.4829 10.3025 35.4829C10.0658 35.4829 9.87747 35.5596 9.73747 35.7129C9.59747 35.8629 9.52747 36.0813 9.52747 36.3679V37.8779H9.07747V36.3279C9.07747 36.0546 9.00914 35.8463 8.87247 35.7029C8.73914 35.5563 8.55747 35.4829 8.32747 35.4829C8.09081 35.4829 7.90247 35.5596 7.76247 35.7129C7.62247 35.8629 7.55247 36.0813 7.55247 36.3679V37.8779H7.09747V35.1379H7.55247V35.5329C7.64247 35.3896 7.76247 35.2796 7.91247 35.2029C8.06581 35.1263 8.23414 35.0879 8.41747 35.0879C8.64747 35.0879 8.85081 35.1396 9.02747 35.2429C9.20414 35.3463 9.33581 35.4979 9.42247 35.6979C9.49914 35.5046 9.62581 35.3546 9.80247 35.2479C9.97914 35.1413 10.1758 35.0879 10.3925 35.0879Z" fill="black"/>
<path d="M12.0788 36.4979C12.0788 36.2179 12.1355 35.9729 12.2488 35.7629C12.3622 35.5496 12.5172 35.3846 12.7138 35.2679C12.9138 35.1513 13.1355 35.0929 13.3788 35.0929C13.6188 35.0929 13.8272 35.1446 14.0038 35.2479C14.1805 35.3513 14.3122 35.4813 14.3988 35.6379V35.1379H14.8588V37.8779H14.3988V37.3679C14.3088 37.5279 14.1738 37.6613 13.9938 37.7679C13.8172 37.8713 13.6105 37.9229 13.3738 37.9229C13.1305 37.9229 12.9105 37.8629 12.7138 37.7429C12.5172 37.6229 12.3622 37.4546 12.2488 37.2379C12.1355 37.0213 12.0788 36.7746 12.0788 36.4979ZM14.3988 36.5029C14.3988 36.2963 14.3572 36.1163 14.2738 35.9629C14.1905 35.8096 14.0772 35.6929 13.9338 35.6129C13.7938 35.5296 13.6388 35.4879 13.4688 35.4879C13.2988 35.4879 13.1438 35.5279 13.0038 35.6079C12.8638 35.6879 12.7522 35.8046 12.6688 35.9579C12.5855 36.1113 12.5438 36.2913 12.5438 36.4979C12.5438 36.7079 12.5855 36.8913 12.6688 37.0479C12.7522 37.2013 12.8638 37.3196 13.0038 37.4029C13.1438 37.4829 13.2988 37.5229 13.4688 37.5229C13.6388 37.5229 13.7938 37.4829 13.9338 37.4029C14.0772 37.3196 14.1905 37.2013 14.2738 37.0479C14.3572 36.8913 14.3988 36.7096 14.3988 36.5029Z" fill="black"/>
<path d="M16.7577 35.0929C16.9944 35.0929 17.2011 35.1446 17.3777 35.2479C17.5577 35.3513 17.6911 35.4813 17.7777 35.6379V35.1379H18.2377V37.9379C18.2377 38.1879 18.1844 38.4096 18.0777 38.6029C17.9711 38.7996 17.8177 38.9529 17.6177 39.0629C17.4211 39.1729 17.1911 39.2279 16.9277 39.2279C16.5677 39.2279 16.2677 39.1429 16.0277 38.9729C15.7877 38.8029 15.6461 38.5713 15.6027 38.2779H16.0527C16.1027 38.4446 16.2061 38.5779 16.3627 38.6779C16.5194 38.7813 16.7077 38.8329 16.9277 38.8329C17.1777 38.8329 17.3811 38.7546 17.5377 38.5979C17.6977 38.4413 17.7777 38.2213 17.7777 37.9379V37.3629C17.6877 37.5229 17.5544 37.6563 17.3777 37.7629C17.2011 37.8696 16.9944 37.9229 16.7577 37.9229C16.5144 37.9229 16.2927 37.8629 16.0927 37.7429C15.8961 37.6229 15.7411 37.4546 15.6277 37.2379C15.5144 37.0213 15.4577 36.7746 15.4577 36.4979C15.4577 36.2179 15.5144 35.9729 15.6277 35.7629C15.7411 35.5496 15.8961 35.3846 16.0927 35.2679C16.2927 35.1513 16.5144 35.0929 16.7577 35.0929ZM17.7777 36.5029C17.7777 36.2963 17.7361 36.1163 17.6527 35.9629C17.5694 35.8096 17.4561 35.6929 17.3127 35.6129C17.1727 35.5296 17.0177 35.4879 16.8477 35.4879C16.6777 35.4879 16.5227 35.5279 16.3827 35.6079C16.2427 35.6879 16.1311 35.8046 16.0477 35.9579C15.9644 36.1113 15.9227 36.2913 15.9227 36.4979C15.9227 36.7079 15.9644 36.8913 16.0477 37.0479C16.1311 37.2013 16.2427 37.3196 16.3827 37.4029C16.5227 37.4829 16.6777 37.5229 16.8477 37.5229C17.0177 37.5229 17.1727 37.4829 17.3127 37.4029C17.4561 37.3196 17.5694 37.2013 17.6527 37.0479C17.7361 36.8913 17.7777 36.7096 17.7777 36.5029Z" fill="black"/>
<path d="M21.5067 36.4029C21.5067 36.4896 21.5017 36.5813 21.4917 36.6779H19.3017C19.3183 36.9479 19.41 37.1596 19.5767 37.3129C19.7467 37.4629 19.9517 37.5379 20.1917 37.5379C20.3883 37.5379 20.5517 37.4929 20.6817 37.4029C20.815 37.3096 20.9083 37.1863 20.9617 37.0329H21.4517C21.3783 37.2963 21.2317 37.5113 21.0117 37.6779C20.7917 37.8413 20.5183 37.9229 20.1917 37.9229C19.9317 37.9229 19.6983 37.8646 19.4917 37.7479C19.2883 37.6313 19.1283 37.4663 19.0117 37.2529C18.895 37.0363 18.8367 36.7863 18.8367 36.5029C18.8367 36.2196 18.8933 35.9713 19.0067 35.7579C19.12 35.5446 19.2783 35.3813 19.4817 35.2679C19.6883 35.1513 19.925 35.0929 20.1917 35.0929C20.4517 35.0929 20.6817 35.1496 20.8817 35.2629C21.0817 35.3763 21.235 35.5329 21.3417 35.7329C21.4517 35.9296 21.5067 36.1529 21.5067 36.4029ZM21.0367 36.3079C21.0367 36.1346 20.9983 35.9863 20.9217 35.8629C20.845 35.7363 20.74 35.6413 20.6067 35.5779C20.4767 35.5113 20.3317 35.4779 20.1717 35.4779C19.9417 35.4779 19.745 35.5513 19.5817 35.6979C19.4217 35.8446 19.33 36.0479 19.3067 36.3079H21.0367Z" fill="black"/>
</svg>
